# xmcd CD database file
#
# Track frame offsets:
#	182
#	50980
#	113557
#	153565
#	190620
#
# Disc length: 2886 seconds
#
# Revision: 1
# Processed by: cddbd v1.5.1PL0 Copyright (c) Steve Scherf et al.
# Submitted via: CDex 1.51
#
DISCID=3c0b4405
DTITLE=Kenny Dorham - Scandia Skies
DYEAR=1963
DGENRE=Jazz
TTITLE0=Solar
TTITLE1=Woody'n you
TTITLE2=Scandia Skies
TTITLE3=Manha de Carnival
TTITLE4=It could happen to you
EXTD=YEAR: 1963
EXTT0=
EXTT1=
EXTT2=
EXTT3=
EXTT4=
PLAYORDER=
